<svg width="26" height="26" viewBox="0 0 26 26" fill="none" xmlns="http://www.w3.org/2000/svg">
<path d="M12.682 23.7788C10.4873 23.7788 8.34186 23.1279 6.51701 21.9086C4.69215 20.6893 3.26985 18.9562 2.42996 16.9285C1.59007 14.9009 1.37032 12.6697 1.79849 10.5171C2.22666 8.36455 3.28353 6.38729 4.83544 4.83538C6.38735 3.28347 8.36461 2.2266 10.5172 1.79843C12.6697 1.37026 14.9009 1.59001 16.9286 2.4299C18.9563 3.26979 20.6893 4.69209 21.9087 6.51695C23.128 8.3418 23.7788 10.4872 23.7788 12.682C23.7788 15.625 22.6097 18.4475 20.5286 20.5286C18.4476 22.6096 15.6251 23.7788 12.682 23.7788ZM12.682 3.17046C10.8008 3.17046 8.96189 3.7283 7.39773 4.77344C5.83357 5.81858 4.61445 7.30408 3.89455 9.04208C3.17464 10.7801 2.98628 12.6925 3.35329 14.5376C3.72029 16.3826 4.62617 18.0774 5.95638 19.4076C7.28659 20.7379 8.98139 21.6437 10.8264 22.0107C12.6715 22.3777 14.5839 22.1894 16.3219 21.4695C18.0599 20.7496 19.5454 19.5305 20.5906 17.9663C21.6357 16.4021 22.1936 14.5632 22.1936 12.682C22.1936 10.1594 21.1915 7.74008 19.4077 5.95632C17.6239 4.17257 15.2047 3.17046 12.682 3.17046Z" fill="#5C241B"/>
<path d="M16.3202 17.4377L11.8894 13.007V5.54834H13.4747V12.3491L17.4378 16.3201L16.3202 17.4377Z" fill="#5C241B"/>
</svg>
