<svg width="28" height="28" viewBox="0 0 28 28" fill="none" xmlns="http://www.w3.org/2000/svg">
<path d="M23.7788 5.09521H3.39699C2.94652 5.09521 2.51451 5.27416 2.19598 5.59269C1.87745 5.91122 1.69851 6.34323 1.69851 6.7937V20.3816C1.69851 20.8321 1.87745 21.2641 2.19598 21.5826C2.51451 21.9011 2.94652 22.0801 3.39699 22.0801H23.7788C24.2293 22.0801 24.6613 21.9011 24.9798 21.5826C25.2984 21.2641 25.4773 20.8321 25.4773 20.3816V6.7937C25.4773 6.34323 25.2984 5.91122 24.9798 5.59269C24.6613 5.27416 24.2293 5.09521 23.7788 5.09521ZM21.9105 6.7937L13.5879 12.5516L5.26533 6.7937H21.9105ZM3.39699 20.3816V7.56651L13.1038 14.284C13.246 14.3826 13.4149 14.4355 13.5879 14.4355C13.7609 14.4355 13.9298 14.3826 14.072 14.284L23.7788 7.56651V20.3816H3.39699Z" fill="white"/>
</svg>
