<svg width="31" height="31" viewBox="0 0 31 31" fill="none" xmlns="http://www.w3.org/2000/svg">
<path d="M15.4922 11.4588C13.2712 11.4588 11.4588 13.2712 11.4588 15.4922C11.4588 17.7131 13.2712 19.5256 15.4922 19.5256C17.7131 19.5256 19.5256 17.7131 19.5256 15.4922C19.5256 13.2712 17.7131 11.4588 15.4922 11.4588ZM27.5893 15.4922C27.5893 13.8219 27.6045 12.1668 27.5107 10.4996C27.4169 8.56308 26.9751 6.84442 25.559 5.42834C24.1399 4.00924 22.4243 3.5705 20.4878 3.4767C18.8175 3.3829 17.1624 3.39803 15.4952 3.39803C13.8249 3.39803 12.1698 3.3829 10.5026 3.4767C8.5661 3.5705 6.84744 4.01226 5.43136 5.42834C4.01226 6.84744 3.57352 8.56308 3.47972 10.4996C3.38592 12.1698 3.40105 13.825 3.40105 15.4922C3.40105 17.1594 3.38592 18.8175 3.47972 20.4848C3.57352 22.4213 4.01529 24.1399 5.43136 25.556C6.85047 26.9751 8.5661 27.4138 10.5026 27.5076C12.1729 27.6014 13.828 27.5863 15.4952 27.5863C17.1654 27.5863 18.8206 27.6014 20.4878 27.5076C22.4243 27.4138 24.1429 26.9721 25.559 25.556C26.9781 24.1369 27.4169 22.4213 27.5107 20.4848C27.6075 18.8175 27.5893 17.1624 27.5893 15.4922ZM15.4922 21.6981C12.0579 21.6981 9.28624 18.9265 9.28624 15.4922C9.28624 12.0579 12.0579 9.28624 15.4922 9.28624C18.9265 9.28624 21.6981 12.0579 21.6981 15.4922C21.6981 18.9265 18.9265 21.6981 15.4922 21.6981ZM21.9523 10.4814C21.1504 10.4814 20.5029 9.83391 20.5029 9.03208C20.5029 8.23024 21.1504 7.58272 21.9523 7.58272C22.7541 7.58272 23.4016 8.23024 23.4016 9.03208C23.4019 9.22248 23.3645 9.41105 23.2918 9.587C23.219 9.76296 23.1123 9.92283 22.9776 10.0575C22.843 10.1921 22.6831 10.2988 22.5072 10.3716C22.3312 10.4444 22.1427 10.4817 21.9523 10.4814Z" fill="#F8F8F8"/>
</svg>
