<svg width="98" height="38" viewBox="0 0 98 38" fill="none" xmlns="http://www.w3.org/2000/svg">
<path d="M6.64385 21.3829C5.45883 21.3829 4.33762 21.2279 3.28022 20.918C2.22282 20.5898 1.37508 20.1431 0.736995 19.578V2.81455C0.736995 2.24939 0.91019 1.80273 1.25658 1.47457C1.6212 1.12818 2.07698 0.954988 2.62391 0.954988C3.09791 0.954988 3.51723 1.03703 3.88185 1.20111C4.2647 1.36519 4.57463 1.5475 4.81163 1.74804C4.42878 3.27944 4.23735 5.16636 4.23735 7.40877V9.35037C4.56551 8.47529 5.08509 7.78251 5.7961 7.27204C6.52535 6.76157 7.40044 6.50633 8.42137 6.50633C9.95278 6.50633 11.1378 7.0715 11.9764 8.20182C12.8333 9.31391 13.2617 11.055 13.2617 13.425C13.2617 15.9591 12.7239 17.919 11.6483 19.3045C10.5909 20.6901 8.92273 21.3829 6.64385 21.3829ZM6.39773 19.9608C7.60098 19.9426 8.41226 19.3592 8.83157 18.2107C9.26911 17.0621 9.48789 15.4669 9.48789 13.425C9.48789 11.6566 9.34204 10.3713 9.05034 9.56915C8.75865 8.76698 8.27552 8.3659 7.60098 8.3659C6.52535 8.3659 5.69583 8.94018 5.11244 10.0887C4.54728 11.2191 4.2647 12.6137 4.2647 14.2728V19.3045C4.51993 19.5051 4.83898 19.6691 5.22183 19.7968C5.62291 19.9061 6.01488 19.9608 6.39773 19.9608ZM29.3883 18.4294C29.6253 18.7758 29.7438 19.1404 29.7438 19.5233C29.7438 20.0884 29.5523 20.5351 29.1695 20.8633C28.8049 21.1914 28.2762 21.3555 27.5834 21.3555C26.763 21.3555 26.1067 21.0912 25.6144 20.5625C25.1404 20.0338 24.8852 19.2407 24.8487 18.1833C24.083 20.3346 22.5972 21.4102 20.3913 21.4102C18.8963 21.4102 17.8024 20.9818 17.1097 20.1249C16.4169 19.2681 16.0705 17.846 16.0705 15.8589V10.7724C16.0705 9.38684 15.8973 8.22917 15.5509 7.29938C16.189 6.77068 16.8635 6.50633 17.5746 6.50633C18.1762 6.50633 18.6593 6.67041 19.0239 6.99857C19.4068 7.32673 19.5982 7.78251 19.5982 8.3659L19.6255 15.3119C19.6255 16.8798 19.7623 18.0101 20.0357 18.7029C20.3092 19.3957 20.8197 19.7421 21.5672 19.7421C22.4422 19.7421 23.1441 19.1951 23.6728 18.1013C24.2015 17.0074 24.4659 15.4213 24.4659 13.343C24.4659 11.3376 24.4385 9.99758 24.3838 9.32303C24.3292 8.63025 24.156 7.94659 23.8643 7.27204C24.0648 7.08973 24.3383 6.91653 24.6847 6.75245C25.0493 6.58837 25.4504 6.50633 25.8879 6.50633C26.4713 6.50633 26.9544 6.68864 27.3373 7.05326C27.7384 7.41789 27.9389 7.91012 27.9389 8.52998L27.9662 17.3082C27.9662 17.8187 28.0209 18.1833 28.1303 18.4021C28.2397 18.6209 28.422 18.7302 28.6773 18.7302C28.9872 18.7302 29.2242 18.63 29.3883 18.4294ZM44.4304 17.1441C44.485 18.6573 44.6674 19.8059 44.9773 20.5898C44.3757 21.1185 43.692 21.3829 42.9263 21.3829C42.3429 21.3829 41.8598 21.2188 41.4769 20.8906C41.0941 20.5625 40.9026 20.1158 40.9026 19.5506V12.5773C40.8844 11.1006 40.7295 10.0158 40.4378 9.32303C40.1461 8.63025 39.6082 8.28386 38.8243 8.28386C37.9492 8.28386 37.2382 8.82167 36.6913 9.89731C36.1444 10.9547 35.8709 12.5043 35.8709 14.5462C35.8709 16.5516 35.8982 17.9007 35.9529 18.5935C36.0076 19.2681 36.1717 19.9426 36.4452 20.6171C36.2629 20.7995 35.9894 20.9727 35.6248 21.1367C35.2784 21.3008 34.8864 21.3829 34.4489 21.3829C33.829 21.3829 33.3277 21.2005 32.9448 20.8359C32.562 20.4713 32.3705 19.9882 32.3705 19.3866V10.6083C32.3523 10.0978 32.2885 9.73323 32.1791 9.51445C32.0697 9.27745 31.8874 9.15895 31.6322 9.15895C31.2858 9.15895 31.0488 9.26833 30.9212 9.48711C30.7024 9.12249 30.593 8.74875 30.593 8.3659C30.593 7.81897 30.7753 7.38142 31.1399 7.05326C31.5228 6.70688 32.0515 6.53368 32.726 6.53368C33.5647 6.53368 34.221 6.80715 34.695 7.35408C35.1872 7.88278 35.4425 8.68494 35.4607 9.76057C36.2446 7.59108 37.7669 6.50633 40.0276 6.50633C41.5225 6.50633 42.6255 6.97123 43.3365 7.90101C44.0657 8.81256 44.4304 10.189 44.4304 12.0303V17.1441ZM59.5476 21.3829C58.3626 21.3829 57.2414 21.2279 56.184 20.918C55.1266 20.5898 54.2789 20.1431 53.6408 19.578V2.81455C53.6408 2.24939 53.814 1.80273 54.1604 1.47457C54.525 1.12818 54.9808 0.954988 55.5277 0.954988C56.0017 0.954988 56.421 1.03703 56.7856 1.20111C57.1685 1.36519 57.4784 1.5475 57.7154 1.74804C57.3326 3.27944 57.1411 5.16636 57.1411 7.40877V9.35037C57.4693 8.47529 57.9889 7.78251 58.6999 7.27204C59.4291 6.76157 60.3042 6.50633 61.3252 6.50633C62.8566 6.50633 64.0416 7.0715 64.8802 8.20182C65.7371 9.31391 66.1655 11.055 66.1655 13.425C66.1655 15.9591 65.6277 17.919 64.5521 19.3045C63.4947 20.6901 61.8265 21.3829 59.5476 21.3829ZM59.3015 19.9608C60.5048 19.9426 61.3161 19.3592 61.7354 18.2107C62.1729 17.0621 62.3917 15.4669 62.3917 13.425C62.3917 11.6566 62.2458 10.3713 61.9541 9.56915C61.6624 8.76698 61.1793 8.3659 60.5048 8.3659C59.4291 8.3659 58.5996 8.94018 58.0162 10.0887C57.4511 11.2191 57.1685 12.6137 57.1685 14.2728V19.3045C57.4237 19.5051 57.7428 19.6691 58.1256 19.7968C58.5267 19.9061 58.9187 19.9608 59.3015 19.9608ZM82.2921 18.4294C82.5291 18.7758 82.6476 19.1404 82.6476 19.5233C82.6476 20.0884 82.4561 20.5351 82.0733 20.8633C81.7087 21.1914 81.18 21.3555 80.4872 21.3555C79.6668 21.3555 79.0105 21.0912 78.5182 20.5625C78.0442 20.0338 77.789 19.2407 77.7525 18.1833C76.9868 20.3346 75.501 21.4102 73.295 21.4102C71.8001 21.4102 70.7062 20.9818 70.0135 20.1249C69.3207 19.2681 68.9743 17.846 68.9743 15.8589V10.7724C68.9743 9.38684 68.8011 8.22917 68.4547 7.29938C69.0928 6.77068 69.7673 6.50633 70.4784 6.50633C71.08 6.50633 71.5631 6.67041 71.9277 6.99857C72.3106 7.32673 72.502 7.78251 72.502 8.3659L72.5293 15.3119C72.5293 16.8798 72.6661 18.0101 72.9395 18.7029C73.213 19.3957 73.7235 19.7421 74.4709 19.7421C75.346 19.7421 76.0479 19.1951 76.5766 18.1013C77.1053 17.0074 77.3697 15.4213 77.3697 13.343C77.3697 11.3376 77.3423 9.99758 77.2876 9.32303C77.2329 8.63025 77.0598 7.94659 76.7681 7.27204C76.9686 7.08973 77.2421 6.91653 77.5885 6.75245C77.9531 6.58837 78.3542 6.50633 78.7917 6.50633C79.3751 6.50633 79.8582 6.68864 80.2411 7.05326C80.6421 7.41789 80.8427 7.91012 80.8427 8.52998L80.87 17.3082C80.87 17.8187 80.9247 18.1833 81.0341 18.4021C81.1435 18.6209 81.3258 18.7302 81.581 18.7302C81.891 18.7302 82.128 18.63 82.2921 18.4294ZM97.3341 17.1441C97.3888 18.6573 97.5711 19.8059 97.8811 20.5898C97.2795 21.1185 96.5958 21.3829 95.8301 21.3829C95.2467 21.3829 94.7636 21.2188 94.3807 20.8906C93.9979 20.5625 93.8064 20.1158 93.8064 19.5506V12.5773C93.7882 11.1006 93.6332 10.0158 93.3416 9.32303C93.0499 8.63025 92.512 8.28386 91.7281 8.28386C90.853 8.28386 90.142 8.82167 89.5951 9.89731C89.0481 10.9547 88.7747 12.5043 88.7747 14.5462C88.7747 16.5516 88.802 17.9007 88.8567 18.5935C88.9114 19.2681 89.0755 19.9426 89.349 20.6171C89.1666 20.7995 88.8932 20.9727 88.5286 21.1367C88.1822 21.3008 87.7902 21.3829 87.3527 21.3829C86.7328 21.3829 86.2315 21.2005 85.8486 20.8359C85.4657 20.4713 85.2743 19.9882 85.2743 19.3866V10.6083C85.2561 10.0978 85.1923 9.73323 85.0829 9.51445C84.9735 9.27745 84.7912 9.15895 84.536 9.15895C84.1896 9.15895 83.9526 9.26833 83.825 9.48711C83.6062 9.12249 83.4968 8.74875 83.4968 8.3659C83.4968 7.81897 83.6791 7.38142 84.0437 7.05326C84.4266 6.70688 84.9553 6.53368 85.6298 6.53368C86.4685 6.53368 87.1248 6.80715 87.5988 7.35408C88.091 7.88278 88.3462 8.68494 88.3645 9.76057C89.1484 7.59108 90.6707 6.50633 92.9314 6.50633C94.4263 6.50633 95.5293 6.97123 96.2403 7.90101C96.9695 8.81256 97.3341 10.189 97.3341 12.0303V17.1441ZM29.7057 35.1543C29.228 35.1543 28.776 35.0919 28.3498 34.9669C27.9235 34.8346 27.5818 34.6546 27.3245 34.4268V27.669C27.3245 27.4412 27.3944 27.2612 27.534 27.1289C27.681 26.9892 27.8647 26.9194 28.0852 26.9194C28.2763 26.9194 28.4453 26.9525 28.5923 27.0186C28.7466 27.0848 28.8716 27.1583 28.9671 27.2391C28.8128 27.8564 28.7356 28.6171 28.7356 29.5211V30.3038C28.8679 29.951 29.0774 29.6717 29.364 29.466C29.658 29.2602 30.0107 29.1573 30.4223 29.1573C31.0396 29.1573 31.5173 29.3851 31.8554 29.8408C32.2008 30.2891 32.3735 30.9909 32.3735 31.9464C32.3735 32.9679 32.1567 33.758 31.7231 34.3165C31.2969 34.8751 30.6244 35.1543 29.7057 35.1543ZM29.6065 34.5811C30.0916 34.5737 30.4186 34.3386 30.5876 33.8756C30.764 33.4125 30.8522 32.7695 30.8522 31.9464C30.8522 31.2335 30.7934 30.7153 30.6758 30.392C30.5582 30.0686 30.3635 29.9069 30.0916 29.9069C29.658 29.9069 29.3236 30.1384 29.0884 30.6014C28.8606 31.0571 28.7466 31.6193 28.7466 32.2881V34.3165C28.8495 34.3974 28.9781 34.4635 29.1325 34.5149C29.2942 34.559 29.4522 34.5811 29.6065 34.5811ZM38.7863 33.8976C38.8819 34.0372 38.9296 34.1879 38.9296 34.3496C38.9296 34.5627 38.8378 34.7428 38.654 34.8898C38.4703 35.0367 38.2241 35.1102 37.9154 35.1102C37.5627 35.1102 37.2871 34.9963 37.0886 34.7685C36.8902 34.5333 36.7763 34.1548 36.7469 33.633C36.5411 34.0813 36.2545 34.4415 35.887 34.7134C35.5195 34.978 35.0933 35.1102 34.6082 35.1102C34.1746 35.1102 33.8255 34.9963 33.5609 34.7685C33.2964 34.5407 33.1641 34.221 33.1641 33.8094C33.1641 33.3391 33.3441 32.9532 33.7043 32.6519C34.0644 32.3506 34.52 32.1191 35.0712 31.9574C35.5489 31.8251 36.0744 31.7516 36.6477 31.7369V31.4613C36.6477 30.8366 36.5742 30.3773 36.4272 30.0833C36.2802 29.7893 36.0266 29.6423 35.6665 29.6423C35.4313 29.6423 35.2403 29.7122 35.0933 29.8518C34.9463 29.9841 34.8728 30.1899 34.8728 30.4691C34.8728 30.8587 35.0051 31.1306 35.2697 31.2849C35.1888 31.3658 35.0786 31.4282 34.9389 31.4723C34.8067 31.5164 34.6633 31.5385 34.509 31.5385C34.1709 31.5385 33.9027 31.4429 33.7043 31.2518C33.5132 31.0608 33.4176 30.8182 33.4176 30.5243C33.4176 30.0906 33.6271 29.7563 34.046 29.5211C34.4649 29.2785 35.0345 29.1573 35.7547 29.1573C36.5705 29.1573 37.1658 29.3447 37.5406 29.7195C37.9228 30.0943 38.1139 30.7043 38.1139 31.5495V33.4677C38.1139 33.8572 38.2351 34.0519 38.4776 34.0519C38.5291 34.0519 38.5842 34.0409 38.643 34.0189C38.7018 33.9895 38.7496 33.949 38.7863 33.8976ZM35.2697 34.1842C35.4828 34.1842 35.6996 34.096 35.9201 33.9196C36.1406 33.7433 36.3243 33.5044 36.4713 33.2031C36.6183 32.8944 36.6918 32.56 36.6918 32.1999C36.1112 32.1999 35.6775 32.2807 35.3909 32.4424C35.1851 32.5453 35.0198 32.685 34.8948 32.8613C34.7773 33.0377 34.7185 33.2398 34.7185 33.4677C34.7185 33.6661 34.7626 33.8351 34.8507 33.9748C34.9463 34.1144 35.0859 34.1842 35.2697 34.1842ZM44.6999 33.8645C44.8249 33.9895 44.8873 34.1438 44.8873 34.3275C44.8873 34.5627 44.7881 34.7611 44.5897 34.9228C44.3912 35.0772 44.145 35.1543 43.8511 35.1543C43.6012 35.1543 43.3734 35.0845 43.1676 34.9449C42.9691 34.8052 42.8148 34.5921 42.7046 34.3055L41.988 32.6188C41.6426 32.7144 41.3633 32.7805 41.1502 32.8172C41.1502 33.4493 41.1612 33.8829 41.1833 34.1181C41.2127 34.3459 41.2825 34.5884 41.3927 34.8457C41.2751 34.9412 41.1502 35.0147 41.0179 35.0661C40.893 35.1249 40.7313 35.1543 40.5328 35.1543C40.2315 35.1543 40.0257 35.0845 39.9155 34.9449C39.8053 34.8052 39.7501 34.6068 39.7501 34.3496L39.7391 27.669C39.7391 27.4339 39.8126 27.2501 39.9596 27.1178C40.1139 26.9856 40.3124 26.9194 40.5549 26.9194C40.7386 26.9194 40.8966 26.9525 41.0289 27.0186C41.1686 27.0848 41.2788 27.1583 41.3596 27.2391C41.2788 27.658 41.2274 28.0034 41.2053 28.2754C41.1833 28.5399 41.1686 28.8523 41.1612 29.2124L41.1392 29.8187L41.1281 30.5463C41.2972 30.1127 41.5471 29.7746 41.8778 29.5321C42.2158 29.2822 42.6274 29.1573 43.1125 29.1573C43.5828 29.1573 43.9319 29.2749 44.1597 29.51C44.3949 29.7379 44.5125 30.0319 44.5125 30.392C44.5125 30.8109 44.3618 31.182 44.0605 31.5054C43.7666 31.8288 43.3917 32.097 42.9361 32.3101C43.0537 32.3395 43.1602 32.4057 43.2558 32.5086C43.3587 32.6041 43.4652 32.7438 43.5755 32.9275L43.9172 33.5007C44.0201 33.6845 44.0973 33.8094 44.1487 33.8756C44.2075 33.9343 44.2884 33.9637 44.3912 33.9637C44.5015 33.9637 44.6044 33.9307 44.6999 33.8645ZM41.1502 32.2991C41.672 32.1448 42.1203 31.9133 42.4951 31.6046C42.8699 31.2959 43.0573 30.9211 43.0573 30.4802C43.0573 30.0759 42.8883 29.8738 42.5502 29.8738C42.293 29.8738 42.0578 29.9841 41.8447 30.2046C41.6316 30.4177 41.4625 30.7117 41.3376 31.0865C41.2127 31.4539 41.1502 31.8582 41.1502 32.2991ZM50.2316 33.4125C50.3491 33.464 50.4079 33.5632 50.4079 33.7102C50.4079 33.8057 50.3822 33.916 50.3308 34.0409C50.1911 34.3937 49.9376 34.6693 49.5701 34.8677C49.2026 35.0588 48.758 35.1543 48.2362 35.1543C47.3837 35.1543 46.7075 34.8934 46.2078 34.3716C45.708 33.8425 45.4582 33.1002 45.4582 32.1448C45.4582 31.2114 45.7007 30.4802 46.1857 29.951C46.6708 29.4219 47.3616 29.1573 48.2583 29.1573C48.9123 29.1573 49.4488 29.3043 49.8678 29.5982C50.2867 29.8849 50.4961 30.2928 50.4961 30.8219C50.4961 31.3584 50.2793 31.7736 49.8457 32.0676C49.4121 32.3616 48.8315 32.5086 48.1039 32.5086C47.6336 32.5086 47.2698 32.4939 47.0125 32.4645C47.064 33.1039 47.2257 33.5632 47.4976 33.8425C47.7769 34.1218 48.159 34.2614 48.6441 34.2614C49.0336 34.2614 49.3643 34.1842 49.6363 34.0299C49.9082 33.8756 50.1066 33.6698 50.2316 33.4125ZM48.2031 29.6534C47.821 29.6534 47.5233 29.8591 47.3102 30.2707C47.0971 30.6749 46.9905 31.2371 46.9905 31.9574V31.9684L47.3653 31.9794C47.821 31.9794 48.1995 31.8839 48.5008 31.6928C48.8095 31.5017 48.9638 31.1343 48.9638 30.5904C48.9638 29.9657 48.7102 29.6534 48.2031 29.6534ZM55.6582 35.1543C54.9674 35.1543 54.4419 35.0367 54.0818 34.8016C53.729 34.5664 53.5526 34.254 53.5526 33.8645C53.5526 33.6587 53.6151 33.4787 53.74 33.3244C53.8723 33.17 54.0781 33.0928 54.3574 33.0928C54.4088 33.0928 54.4933 33.1002 54.6109 33.1149C54.5962 33.1737 54.5889 33.2582 54.5889 33.3684C54.5889 33.4934 54.6036 33.6036 54.633 33.6992C54.6697 33.9564 54.791 34.1769 54.9968 34.3606C55.2025 34.537 55.4892 34.6252 55.8566 34.6252C56.158 34.6252 56.4005 34.5701 56.5842 34.4598C56.768 34.3422 56.8598 34.1695 56.8598 33.9417C56.8598 33.758 56.801 33.6036 56.6834 33.4787C56.5732 33.3464 56.4409 33.2398 56.2866 33.159C56.1396 33.0708 55.8934 32.9459 55.548 32.7842C55.1511 32.5931 54.8351 32.4241 54.5999 32.2771C54.3647 32.1301 54.1626 31.9317 53.9936 31.6818C53.8245 31.4319 53.74 31.1232 53.74 30.7558C53.74 30.2193 53.9458 29.8187 54.3574 29.5541C54.7689 29.2822 55.2907 29.1463 55.9228 29.1463C56.5328 29.1463 57.0178 29.2418 57.3779 29.4329C57.7454 29.6166 57.9291 29.8812 57.9291 30.2266C57.9291 30.4103 57.874 30.5647 57.7638 30.6896C57.6609 30.8146 57.4919 30.8807 57.2567 30.888C57.2199 30.8954 57.1648 30.8991 57.0913 30.8991C57.0472 30.8991 56.9737 30.8917 56.8708 30.877C56.8782 30.8403 56.8819 30.7778 56.8819 30.6896C56.8819 30.5059 56.8525 30.3552 56.7937 30.2376C56.7349 30.0539 56.6246 29.9106 56.463 29.8077C56.3013 29.7048 56.1028 29.6534 55.8677 29.6534C55.6251 29.6534 55.423 29.7048 55.2613 29.8077C55.0997 29.9106 55.0188 30.0649 55.0188 30.2707C55.0188 30.4618 55.0776 30.6308 55.1952 30.7778C55.3128 30.9174 55.4561 31.0387 55.6251 31.1416C55.8015 31.2371 56.0477 31.3621 56.3637 31.5164C56.7606 31.7075 57.0766 31.8765 57.3118 32.0235C57.5543 32.1632 57.7601 32.3469 57.9291 32.5747C58.1055 32.8025 58.1937 33.0745 58.1937 33.3905C58.1937 33.6992 58.1055 33.9895 57.9291 34.2614C57.7601 34.526 57.4845 34.7428 57.1023 34.9118C56.7275 35.0735 56.2462 35.1543 55.6582 35.1543ZM64.0539 33.4456C64.0539 34.0042 64.1237 34.4672 64.2634 34.8346C64.0209 35.0478 63.7526 35.1543 63.4586 35.1543C63.2235 35.1543 63.0287 35.0882 62.8744 34.9559C62.72 34.8236 62.6429 34.6436 62.6429 34.4157V31.6046C62.6429 30.9946 62.5804 30.5463 62.4554 30.2597C62.3379 29.9731 62.1211 29.8297 61.805 29.8297C61.4449 29.8297 61.1546 30.0502 60.9341 30.4912C60.7137 30.9321 60.6034 31.5679 60.6034 32.3983C60.6034 33.2068 60.6144 33.7506 60.6365 34.0299C60.6585 34.3018 60.7284 34.5737 60.8459 34.8457C60.7725 34.9192 60.6622 34.989 60.5152 35.0551C60.3756 35.1213 60.2176 35.1543 60.0412 35.1543C59.7987 35.1543 59.6002 35.0808 59.4459 34.9339C59.2916 34.7869 59.2144 34.5921 59.2144 34.3496L59.2034 27.669C59.2034 27.4265 59.2732 27.2428 59.4128 27.1178C59.5525 26.9929 59.7362 26.9304 59.964 26.9304C60.1404 26.9304 60.3094 26.9635 60.4711 27.0296C60.6328 27.0958 60.7578 27.1656 60.8459 27.2391C60.7504 27.5478 60.6879 27.8932 60.6585 28.2754C60.6291 28.6575 60.6108 29.1646 60.6034 29.7967V30.2817C60.9121 29.5321 61.4706 29.1573 62.2791 29.1573C62.8817 29.1573 63.3263 29.3447 63.613 29.7195C63.9069 30.087 64.0539 30.6418 64.0539 31.3841V33.4456ZM67.8386 35.1543C66.9934 35.1543 66.332 34.8934 65.8543 34.3716C65.3766 33.8425 65.1377 33.1075 65.1377 32.1668C65.1377 31.2188 65.3729 30.4802 65.8433 29.951C66.321 29.4219 66.9861 29.1573 67.8386 29.1573C68.6838 29.1573 69.3415 29.4219 69.8119 29.951C70.2896 30.4802 70.5285 31.2188 70.5285 32.1668C70.5285 33.1075 70.2896 33.8425 69.8119 34.3716C69.3415 34.8934 68.6838 35.1543 67.8386 35.1543ZM67.8386 34.6583C68.6103 34.6583 68.9961 33.8278 68.9961 32.1668C68.9961 30.4912 68.6103 29.6534 67.8386 29.6534C67.4417 29.6534 67.1478 29.8628 66.9567 30.2817C66.7656 30.7006 66.6701 31.329 66.6701 32.1668C66.6701 32.9973 66.7656 33.622 66.9567 34.0409C67.1478 34.4525 67.4417 34.6583 67.8386 34.6583ZM74.9664 29.1573C75.6572 29.1573 76.157 29.4182 76.4657 29.94C76.7817 30.4544 76.9397 31.1232 76.9397 31.9464C76.9397 32.9753 76.7266 33.769 76.3003 34.3275C75.8814 34.8787 75.3008 35.1543 74.5585 35.1543C74.2351 35.1543 73.9559 35.0992 73.7207 34.989C73.4929 34.8714 73.3275 34.7024 73.2246 34.4819V35.0441C73.2246 35.8672 73.2981 36.547 73.4451 37.0835C73.3569 37.1644 73.243 37.2342 73.1033 37.293C72.9637 37.3591 72.8057 37.3922 72.6293 37.3922C72.3941 37.3922 72.1994 37.3261 72.045 37.1938C71.8907 37.0615 71.8135 36.8851 71.8135 36.6646L71.8246 30.844C71.8246 30.6455 71.7988 30.5022 71.7474 30.414C71.7033 30.3258 71.6298 30.2817 71.5269 30.2817C71.3873 30.2817 71.2917 30.3221 71.2403 30.403C71.1521 30.256 71.108 30.1053 71.108 29.951C71.108 29.7379 71.1888 29.5615 71.3505 29.4219C71.5122 29.2822 71.7217 29.2124 71.9789 29.2124C72.317 29.2124 72.5779 29.3373 72.7616 29.5872C72.9527 29.8371 73.0703 30.1935 73.1144 30.6565C73.4451 29.657 74.0624 29.1573 74.9664 29.1573ZM74.2057 34.4157C74.6246 34.4157 74.9296 34.2063 75.1207 33.7874C75.3192 33.3684 75.4184 32.7511 75.4184 31.9353C75.4184 31.2739 75.3559 30.7741 75.231 30.4361C75.106 30.098 74.8782 29.929 74.5475 29.929C74.1286 29.929 73.8052 30.2082 73.5774 30.7668C73.3569 31.318 73.2466 31.9647 73.2466 32.707C73.2466 33.2876 73.3201 33.7175 73.4671 33.9968C73.6141 34.2761 73.8603 34.4157 74.2057 34.4157Z" fill="#5C241B"/>
</svg>
