<svg width="26" height="21" viewBox="0 0 26 21" fill="none" xmlns="http://www.w3.org/2000/svg">
<path d="M25.176 2.89547C24.2502 3.30572 23.2556 3.58292 22.21 3.70821C23.2889 3.06267 24.096 2.04666 24.4808 0.849769C23.4672 1.45183 22.3579 1.87561 21.201 2.10269C20.4231 1.27207 19.3927 0.721512 18.2698 0.53651C17.1469 0.351507 15.9943 0.542405 14.991 1.07957C13.9877 1.61673 13.1898 2.4701 12.7212 3.50719C12.2526 4.54428 12.1395 5.70707 12.3995 6.81502C10.3457 6.7119 8.33652 6.17808 6.50237 5.2482C4.66822 4.31833 3.05008 3.01318 1.75298 1.41747C1.30947 2.18253 1.05445 3.06955 1.05445 4.01423C1.05396 4.86467 1.26338 5.70207 1.66415 6.45215C2.06491 7.20223 2.64462 7.84179 3.35185 8.31409C2.53166 8.28799 1.72956 8.06637 1.01232 7.66767V7.7342C1.01224 8.92696 1.42482 10.083 2.18007 11.0062C2.93532 11.9294 3.98671 12.5629 5.15584 12.7991C4.39497 13.005 3.59726 13.0354 2.82296 12.8878C3.15282 13.9141 3.79536 14.8116 4.66062 15.4546C5.52588 16.0975 6.57055 16.4539 7.64838 16.4736C5.81871 17.91 3.55907 18.6891 1.23297 18.6856C0.820921 18.6858 0.409225 18.6617 0 18.6136C2.36113 20.1317 5.10965 20.9374 7.91671 20.9342C17.419 20.9342 22.6136 13.0641 22.6136 6.23845C22.6136 6.01669 22.6081 5.79272 22.5981 5.57096C23.6085 4.84025 24.4807 3.93539 25.1738 2.8988L25.176 2.89547Z" fill="#F8F8F8"/>
</svg>
